# xmcd
#
# Track frame offsets: 
#        150
#        8798
#        18688
#        29023
#        40771
#        51626
#        62867
#        73200
#        84085
#        93872
#        105450
#        117548
#        126334
#        138791
#        150245
#        162328
#        177754
#        190642
#        202121
#        222993
#        236658
#        247076
#        260056
#        277596
#        289034
#        309935
#        323620
#        334044
#
# Disc length: 4685 seconds
#
# Revision: 0
# Processed by: cddbd v1.5.2PL0 Copyright (c) Steve Scherf et al.
# Submitted via: ExactAudioCopy v0.95b3
#
DISCID=90124b1c
DTITLE=The Beatles  - UK EP Collection, Vol. 2  (DESS 2000)  FLAC
DYEAR=1900
DGENRE=
TTITLE0=I'll Follow The Sun
TTITLE1=Baby's In Black
TTITLE2=Words Of Love
TTITLE3=I Don't Want To Spoil The Party
TTITLE4=She Loves You
TTITLE5=I Want To Hold Your Hand
TTITLE6=Can't Buy Me Love
TTITLE7=I Feel Fine
TTITLE8=Yesterday
TTITLE9=Act Naturally
TTITLE10=You Like Me Too Much
TTITLE11=It's Only Love
TTITLE12=Nowhere Man
TTITLE13=Drive My Car
TTITLE14=Michelle
TTITLE15=16 You Won't See Me - 16 You Won't See Me
TTITLE16=Magical Mystery Tour (Mono)
TTITLE17=Your Mother Should Know (Mono)
TTITLE18=I Am The Walrus (Mono)
TTITLE19=The Fool On The Hill (Mono)
TTITLE20=Flying (Mono)
TTITLE21=Magical Mystery Tour (Stereo)
TTITLE22=Blue Jay Way (Mono)
TTITLE23=Your Mother Should Know (Stereo)
TTITLE24=I Am The Walrus (Stereo)
TTITLE25=The Fool On The Hill (Stereo)
TTITLE26=Flying (Stereo)
TTITLE27=Blue Jay Way (Stereo)
EXTD=
EXTT0=
EXTT1=
EXTT2=
EXTT3=
EXTT4=
EXTT5=
EXTT6=
EXTT7=
EXTT8=
EXTT9=
EXTT10=
EXTT11=
EXTT12=
EXTT13=
EXTT14=
EXTT15=
EXTT16=
EXTT17=
EXTT18=
EXTT19=
EXTT20=
EXTT21=
EXTT22=
EXTT23=
EXTT24=
EXTT25=
EXTT26=
EXTT27=
PLAYORDER=
